HIERARCHY
ROOT SimulationBone
{
	OFFSET 0.000000 0.000000 0.000000
	CHANNELS 6 Xposition Yposition Zposition Zrotation Yrotation Xrotation 
	JOINT Hips
	{
		OFFSET 0.000000 0.000000 0.000000
		CHANNELS 6 Xposition Yposition Zposition Zrotation Yrotation Xrotation 
		JOINT LeftUpLeg
		{
			OFFSET 0.103454 1.857828 10.548502
			CHANNELS 3 Zrotation Yrotation Xrotation
			JOINT LeftLeg
			{
				OFFSET 43.500000 -0.000023 -0.000008
				CHANNELS 3 Zrotation Yrotation Xrotation
				JOINT LeftFoot
				{
					OFFSET 42.372192 0.000008 0.000008
					CHANNELS 3 Zrotation Yrotation Xrotation
					JOINT LeftToe
					{
						OFFSET 17.299997 -0.000001 0.000000
						CHANNELS 3 Zrotation Yrotation Xrotation
						End Site
						{
							OFFSET 0.000000 0.000000 0.000000
						}
					}
				}
			}
		}
		JOINT RightUpLeg
		{
			OFFSET 0.103459 1.857828 -10.548505
			CHANNELS 3 Zrotation Yrotation Xrotation
			JOINT RightLeg
			{
				OFFSET 43.500046 -0.000027 0.000015
				CHANNELS 3 Zrotation Yrotation Xrotation
				JOINT RightFoot
				{
					OFFSET 42.372261 -0.000008 0.000019
					CHANNELS 3 Zrotation Yrotation Xrotation
					JOINT RightToe
					{
						OFFSET 17.299992 -0.000006 -0.000002
						CHANNELS 3 Zrotation Yrotation Xrotation
						End Site
						{
							OFFSET 0.000000 0.000000 0.000000
						}
					}
				}
			}
		}
		JOINT Spine
		{
			OFFSET 6.901967 -2.603729 0.000006
			CHANNELS 3 Zrotation Yrotation Xrotation
			JOINT Spine1
			{
				OFFSET 12.588098 -0.000001 -0.000005
				CHANNELS 3 Zrotation Yrotation Xrotation
				JOINT Spine2
				{
					OFFSET 12.343207 0.000001 -0.000003
					CHANNELS 3 Zrotation Yrotation Xrotation
					JOINT Neck
					{
						OFFSET 25.832897 -0.000006 -0.000001
						CHANNELS 3 Zrotation Yrotation Xrotation
						JOINT Head
						{
							OFFSET 11.766602 0.000010 0.000005
							CHANNELS 3 Zrotation Yrotation Xrotation
							End Site
							{
								OFFSET 0.000000 0.000000 0.000000
							}
						}
					}
					JOINT LeftShoulder
					{
						OFFSET 19.745901 -1.480368 6.000114
						CHANNELS 3 Zrotation Yrotation Xrotation
						JOINT LeftArm
						{
							OFFSET 11.284125 -0.000009 -0.000026
							CHANNELS 3 Zrotation Yrotation Xrotation
							JOINT LeftForeArm
							{
								OFFSET 33.000046 0.000005 0.000037
								CHANNELS 3 Zrotation Yrotation Xrotation
								JOINT LeftHand
								{
									OFFSET 25.200003 0.000016 -0.000001
									CHANNELS 3 Zrotation Yrotation Xrotation
									End Site
									{
										OFFSET 0.000000 0.000000 0.000000
									}
								}
							}
						}
					}
					JOINT RightShoulder
					{
						OFFSET 19.746088 -1.480377 -6.000074
						CHANNELS 3 Zrotation Yrotation Xrotation
						JOINT RightArm
						{
							OFFSET 11.284132 -0.000015 -0.000021
							CHANNELS 3 Zrotation Yrotation Xrotation
							JOINT RightForeArm
							{
								OFFSET 33.000107 0.000015 0.000018
								CHANNELS 3 Zrotation Yrotation Xrotation
								JOINT RightHand
								{
									OFFSET 25.199774 0.000138 0.000420
									CHANNELS 3 Zrotation Yrotation Xrotation
									End Site
									{
										OFFSET 0.000000 0.000000 0.000000
									}
								}
							}
						}
					}
				}
			}
		}
	}
}
MOTION
Frames: 11
Frame Time: 0.016667
-72.380957 0.000000 337.993977 0.000000 245.572109 0.000000 -2.820310 81.188759 -3.998519 87.860239 -10.765614 178.422408 138.388565 2.558593 -179.902005 -26.785020 1.483191 -5.315129 57.198271 -3.616465 -16.207976 21.454558 0.003115 0.000018 -165.797856 3.668700 -168.014758 -80.317553 -4.057152 2.622626 69.805181 -0.894765 2.523212 21.454557 -0.003094 0.000001 6.749916 -2.315951 2.109031 3.404723 -4.691931 4.153443 3.086375 -4.666933 4.181671 4.699072 -14.893477 5.684590 -26.220820 14.383731 -3.375118 -162.345835 -78.771903 -19.444303 54.954998 40.098189 49.500135 -111.878306 -1.221687 3.402483 -9.386736 2.139360 15.833272 -125.586218 87.169501 56.295927 42.437672 -52.101317 -37.121760 -133.102204 -4.893879 -3.773091 -4.634570 6.751666 2.082168 
-73.885113 0.000000 342.464160 0.000000 244.675029 0.000000 -1.770578 80.609173 -4.122243 89.402823 -12.297077 -179.813061 137.947663 5.038987 177.005699 -37.374595 1.980166 -3.618216 65.025199 -1.727984 -11.279162 21.454558 0.003112 0.000020 -167.250225 6.289383 -165.769556 -87.848844 -4.231182 5.113572 70.996446 -2.004843 4.450515 21.454561 -0.003099 -0.000005 7.081213 -2.527054 1.476289 4.089752 -5.104028 2.866025 3.770706 -5.086790 2.896832 5.821247 -13.411325 5.302652 -27.166827 13.441978 -3.048351 -160.803373 -78.504914 -21.018116 51.673539 40.256253 47.584340 -110.862665 -1.224435 3.361024 -9.234373 2.202169 15.621062 -126.232613 86.552445 55.685362 44.878244 -55.170826 -43.282094 -131.083699 -4.461445 -3.730072 -4.877800 6.628093 -3.293228 
-75.504439 0.000000 346.985471 0.000000 243.767790 0.000000 -0.914342 79.774979 -4.362156 90.622069 -13.239116 -178.191310 138.247208 6.626016 175.147197 -46.527272 2.366819 -2.672495 73.156038 -0.832159 -8.842771 21.454560 0.003113 0.000020 -169.921255 9.082608 -163.763689 -95.524682 -4.370653 6.467772 72.328437 -3.392207 3.262158 21.454562 -0.003096 -0.000003 7.416614 -2.661290 0.913175 4.785370 -5.357656 1.718151 4.465908 -5.347333 1.750553 6.330249 -11.884107 4.917241 -27.922132 12.461769 -2.762735 -162.446772 -78.106015 -19.347894 46.726436 40.769934 44.349756 -108.327298 -1.304320 3.254274 -8.879197 2.029713 15.780860 -130.590911 85.535229 51.366020 47.526401 -57.704141 -48.624746 -127.026710 -4.001812 -3.609872 -5.178281 6.647633 -9.680195 
-77.230558 0.000000 351.551252 0.000000 242.851579 0.000000 -0.353458 78.968770 -4.615195 91.494883 -13.555545 -176.888879 139.309368 7.238489 174.070662 -53.980661 2.587841 -2.195660 80.830920 -0.375766 -7.984069 21.454561 0.003115 0.000019 -174.106438 11.568417 -162.576407 -102.642056 -4.480940 6.949354 73.879078 -4.645764 0.396637 21.454559 -0.003090 0.000002 7.724654 -2.688248 0.438744 5.424691 -5.393893 0.752445 5.105088 -5.389387 0.785098 6.358701 -10.483472 4.586123 -28.420848 11.564051 -2.502037 -166.014152 -77.662513 -15.712988 40.824486 41.538179 40.288328 -104.862172 -1.459729 3.111404 -8.406061 1.726198 16.464290 -134.833805 84.395053 47.156663 49.794536 -59.662543 -52.876014 -121.798607 -3.510637 -3.437622 -5.496822 6.667889 -16.208205 
-79.055090 0.000000 356.154844 0.000000 241.927470 0.000000 -0.183435 78.473137 -4.771692 91.994968 -13.203804 -176.091075 141.100738 6.774598 173.278143 -59.409237 2.689237 -1.938699 87.327075 -0.064326 -7.741241 21.454562 0.003114 0.000017 179.832215 13.163608 -162.731866 -108.455009 -4.503153 6.786597 75.630335 -5.408537 -2.682715 21.454555 -0.003088 0.000006 7.973747 -2.578145 0.072334 5.940348 -5.156515 0.012715 5.620851 -5.156470 0.043937 6.041810 -9.379273 4.374432 -28.597033 10.870005 -2.253635 -170.437316 -77.252242 -11.199094 34.669705 42.577773 35.883600 -101.056698 -1.692970 2.959989 -7.902593 1.391727 17.824419 -138.099957 83.443380 43.910057 51.020254 -61.033769 -55.669779 -116.268206 -2.976428 -3.249141 -5.764624 6.567339 -21.975852 
-80.969657 0.000000 360.789591 0.000000 240.996415 0.000000 -0.441982 78.495999 -4.749857 92.114233 -12.206632 -175.976608 143.553476 5.239425 172.260146 -62.610872 2.769603 -1.765140 92.138332 0.178667 -7.357229 21.454560 0.003110 0.000016 171.794974 13.246637 -164.431434 -112.281065 -4.353435 6.251615 77.274567 -5.517898 -4.654291 21.454548 -0.003092 0.000005 8.136283 -2.319539 -0.172901 6.274351 -4.626269 -0.471319 5.955138 -4.629155 -0.443317 5.523315 -8.709165 4.353387 -28.405427 10.469470 -1.991574 -174.822168 -76.965026 -6.719918 28.915834 43.976479 31.609728 -97.514243 -1.990903 2.824978 -7.475917 1.088215 19.878804 -140.428764 82.958215 41.580987 50.695774 -61.758280 -56.785893 -111.267652 -2.406908 -3.080576 -5.913532 6.278549 -26.215042 
-82.965878 0.000000 365.448834 0.000000 240.059234 0.000000 -0.960022 78.946579 -4.605557 91.947434 -10.855840 -176.670149 146.555587 3.056006 170.626281 -64.033596 2.898105 -1.864999 95.625653 0.486057 -6.970833 21.454558 0.003108 0.000017 162.682047 11.702897 -167.070020 -113.733707 -4.105214 5.903877 77.681011 -5.324579 -4.879530 21.454545 -0.003095 0.000001 8.200013 -1.972993 -0.308552 6.403375 -3.925896 -0.725890 6.084490 -3.930336 -0.702138 4.976942 -8.492470 4.582870 -27.885780 10.326745 -1.633680 -178.042773 -76.841761 -3.429304 24.165186 45.613737 28.036667 -94.910300 -2.256986 2.724367 -7.313400 0.738613 22.092310 -141.655044 83.016480 40.339952 49.037485 -61.593906 -56.737065 -107.524798 -1.933569 -2.947141 -5.957118 5.869966 -28.700816 
-85.035377 0.000000 370.125917 0.000000 239.116611 0.000000 -1.532315 79.665649 -4.432042 91.605135 -9.526171 -178.175259 149.978138 0.793388 168.177534 -64.326437 3.102069 -2.403744 98.084817 0.984711 -6.780784 21.454558 0.003114 0.000019 153.627669 8.840693 -169.895592 -112.583060 -3.836774 6.159033 76.134360 -5.163576 -3.350340 21.454547 -0.003092 -0.000003 8.165789 -1.617115 -0.364432 6.332657 -3.211877 -0.816817 6.014046 -3.216885 -0.797388 4.552557 -8.681755 5.096642 -27.109848 10.345794 -1.090517 -179.222192 -76.928521 -2.226473 20.997768 47.372363 25.775447 -93.804744 -2.388063 2.681723 -7.575393 0.252622 23.802815 -141.310469 83.585439 40.663836 46.643691 -60.330748 -56.296567 -105.596168 -1.691922 -2.875888 -5.939227 5.422258 -29.404642 
-87.169772 0.000000 374.814181 0.000000 238.169085 0.000000 -1.997240 80.518883 -4.298673 91.239274 -8.619779 179.931861 153.548812 -0.926302 165.290059 -64.289421 3.277578 -3.124963 98.727979 1.513646 -6.411670 21.454558 0.003119 0.000020 145.748641 5.650497 -172.421883 -108.982805 -3.565340 6.488443 74.265561 -5.012114 -1.795065 21.454553 -0.003089 -0.000005 8.069059 -1.332256 -0.416029 6.137274 -2.640604 -0.902079 5.818848 -2.646140 -0.886104 4.289586 -9.082511 5.826495 -26.194854 10.320150 -0.312506 -178.724180 -77.168367 -2.739106 19.426898 49.069376 24.968746 -94.201148 -2.332172 2.697850 -8.226518 -0.447715 24.388439 -139.097956 84.385131 42.860030 44.225739 -58.142318 -55.836388 -105.404305 -1.707655 -2.869958 -5.879056 4.967333 -28.582722 
-89.360686 0.000000 379.506969 0.000000 237.217049 0.000000 -2.233656 81.411734 -4.256251 91.017155 -8.412245 178.141234 156.941824 -1.664467 162.541072 -64.550805 3.335495 -3.696427 96.676549 1.859790 -5.550056 21.454555 0.003113 0.000021 139.867777 3.129979 -174.543190 -103.178169 -3.252303 6.417223 73.747666 -4.961968 -1.716579 21.454557 -0.003092 -0.000003 7.950511 -1.175207 -0.533483 5.900795 -2.321752 -1.126144 5.582478 -2.328643 -1.112099 4.199290 -9.481587 6.671572 -25.266958 10.047542 0.712378 -177.239738 -77.465273 -4.258675 19.269613 50.471873 25.573837 -95.896643 -2.071114 2.756784 -9.133032 -1.406232 23.414917 -134.775382 85.090152 47.179581 42.320793 -55.331168 -55.461724 -106.645501 -1.961299 -2.908619 -5.775593 4.529671 -26.583873 
-91.599740 0.000000 384.197623 0.000000 236.260748 0.000000 -2.228789 82.383888 -4.282880 91.011426 -8.670068 176.773523 160.051618 -1.524592 160.482890 -64.915025 3.419440 -3.891540 91.737895 1.900895 -4.585928 21.454555 0.003107 0.000020 136.100152 1.214100 -176.095186 -95.372724 -2.918235 6.629677 74.119388 -5.216020 -2.027167 21.454558 -0.003095 -0.000001 7.839703 -1.106300 -0.722574 5.681843 -2.175916 -1.498571 5.363617 -2.185054 -1.485406 4.279309 -9.729955 7.516601 -24.424432 9.453493 1.908463 -175.806296 -77.792346 -5.725300 20.057541 51.505352 27.212439 -98.421215 -1.683969 2.841605 -10.026701 -2.437213 21.146238 -129.160929 85.492049 52.806038 41.085387 -52.307889 -55.061705 -108.743803 -2.343678 -2.971786 -5.585398 4.156199 -23.839437 
